# xmcd
#
# Track frame offsets:
#	150
#	14435
#	28272
#	41350
#	57245
#	71190
#	88407
#	96597
#	111467
#	126747
#	140450
#	155300
#	173082
#	186912
#	206272
#	225167
#	240572
#
# Disc length: 3404 seconds
#
# Revision: 0
# Processed by: cddbd v1.5.2PL0 Copyright (c) Steve Scherf et al.
# Submitted via: EasyCDDAExtractor 16.0.6.1
#
DISCID=f40d4a11
DTITLE=Συλλογικός δίσκος - Ρεμπέτικο στου Θωμά 3-Η μάγκα του Περαία
DYEAR=2001
DGENRE=Ποικίλη
TTITLE0=Τσαουσάκης Δημήτρης-Δασκαλάκη Ειρήνη - Πολυτεχνίτης [Μ. Βαμβακάρης]
TTITLE1=Λεονάρδου Σωτηρία - Ήσουνα ξυπόλητη [ανώνυμος]
TTITLE2=Ξηντάρης Γιώργος - Σού 'χει λάχει [Γ. Μπάτης]
TTITLE3=Τσίγκος Κώστας-χορωδία - Οι φυλακές του Ωρωπού [Γ. Μπάτης]
TTITLE4=Μπαγιώκης Γιώργος - Κατάδικος[Γ. Εϊτζιρίδης ή Γιοβάν Τσαούς]
TTITLE5=Χορωδία - Βαρειά χτυπούν τα σήμαντρα [Β. Τσιτσάνης]
TTITLE6=Τσίγκος Κώστας - Ο μαθητής [Μ. Βαμβακάρης]
TTITLE7=Μαραγκόπουλος Νίκος - Μού φαίνεται [Β. Παπάζογλου]
TTITLE8=Ξηντάρης Γιώργος - Θα στο λύσω (Το αίνιγμα) [Β. Παπάζογλου]
TTITLE9=Μαραγκόπουλος Νίκος-χορωδία - Της το βγάλανε [Β. Παπάζογλου]
TTITLE10=Τσίγκος Κώστας - Η γάτα [Στ. Περπινιάδης-Ν. Μάθεσης]
TTITLE11=Ξηντάρης Γιώργος-Χριστοπούλου Χρυσούλα - Ο κόκκορας [Β. Τσιτσάνης-Γ. 
TTITLE11=Τσάκαλος]
TTITLE12=Χριστοπούλου Χρυσούλα - Γεροντάκι [Π. Τούντας]
TTITLE13=Μαραγκόπουλος Νίκος - Βασίλισσα [ανώνυμος]
TTITLE14=Μπαγιώκης Γιώργος - Ο βαρυποινίτης [ανώνυμος]
TTITLE15=Τσίγκος Κώστας - Ισοβίτης [Μ. Βαμβακάρης]
TTITLE16=Χορωδία - Αντιλαλούν οι φυλακές [Μ. Βαμβακάρης]
EXTD=
EXTT0=
EXTT1=
EXTT2=
EXTT3=
EXTT4=
EXTT5=
EXTT6=
EXTT7=
EXTT8=
EXTT9=
EXTT10=
EXTT11=
EXTT12=
EXTT13=
EXTT14=
EXTT15=
EXTT16=
PLAYORDER=
